<?xml version="1.0" standalone="no"?>
<!DOCTYPE svg PUBLIC "-//W3C//DTD SVG 20010904//EN"
 "http://www.w3.org/TR/2001/REC-SVG-20010904/DTD/svg10.dtd">
<svg version="1.0" xmlns="http://www.w3.org/2000/svg"
 width="512.000000pt" height="512.000000pt" viewBox="0 0 512.000000 512.000000"
 preserveAspectRatio="xMidYMid meet">

<g transform="translate(0.000000,512.000000) scale(0.100000,-0.100000)"
fill="#000000" stroke="none">
<path d="M1435 5096 c-59 -27 -105 -70 -131 -123 -16 -32 -20 -65 -22 -200
l-3 -161 -217 -4 c-194 -4 -223 -7 -272 -26 -110 -44 -207 -141 -253 -252
l-22 -55 -3 -1680 c-3 -1879 -7 -1768 67 -1882 20 -32 55 -73 76 -92 52 -45
148 -89 221 -101 35 -6 418 -10 929 -10 l871 0 59 -60 c32 -33 57 -61 54 -63
-26 -23 -214 -146 -286 -187 -51 -28 -97 -58 -103 -66 -7 -7 -12 -30 -12 -51
0 -44 37 -83 80 -83 44 0 311 159 435 258 l38 30 82 -38 c414 -194 923 -80
1213 271 307 372 425 873 349 1486 -29 236 -101 535 -181 752 -39 106 -68 141
-115 141 -34 0 -50 -15 -143 -128 -122 -149 -309 -284 -497 -357 -35 -14 -64
-25 -66 -25 -2 0 -3 418 -3 929 0 871 -1 933 -18 988 -45 143 -158 249 -307
288 -43 11 -111 15 -252 15 l-193 0 0 158 c0 144 -2 161 -24 208 -13 28 -41
65 -62 82 -75 62 -71 62 -683 62 l-556 0 -50 -24z m1186 -175 c17 -20 19 -40
19 -167 l0 -144 -595 0 -595 0 0 141 0 141 29 29 30 30 546 -3 547 -3 19 -24z
m610 -497 c67 -20 148 -97 167 -160 9 -31 12 -269 12 -992 l0 -950 -52 -18
c-272 -89 -601 -328 -748 -544 -156 -230 -214 -514 -159 -783 17 -84 41 -156
96 -285 4 -10 -154 -12 -833 -10 l-839 3 -54 30 c-29 16 -66 45 -82 65 -62 74
-59 -23 -59 1780 0 1862 -7 1714 80 1801 83 83 -3 78 1281 78 1011 1 1141 -1
1190 -15z m1067 -1901 c66 -229 101 -403 123 -611 15 -147 7 -488 -15 -607
-79 -432 -299 -761 -599 -900 -198 -92 -447 -101 -657 -24 -33 12 -60 24 -60
26 0 3 48 55 107 116 186 195 342 398 476 620 131 217 267 508 267 572 0 66
-92 101 -138 53 -11 -13 -37 -61 -57 -108 -117 -274 -282 -550 -470 -785 -89
-112 -332 -365 -350 -365 -22 0 -161 155 -203 226 -90 151 -128 306 -119 484
7 135 24 204 78 319 64 137 163 256 304 366 146 113 239 161 563 289 334 132
474 212 626 358 45 43 84 77 87 78 4 0 20 -48 37 -107z"/>
<path d="M2272 3738 c-13 -7 -218 -231 -456 -499 -368 -414 -435 -494 -444
-531 -12 -48 -4 -104 22 -143 9 -14 104 -84 211 -155 107 -72 195 -136 195
-143 0 -7 -38 -174 -85 -371 -90 -376 -92 -393 -54 -455 39 -64 132 -91 198
-56 26 13 780 898 836 982 46 67 45 148 -2 204 -15 17 -108 85 -207 151 -100
66 -184 124 -189 127 -4 4 38 160 93 347 55 186 103 357 106 379 7 51 -27 121
-75 152 -37 25 -108 30 -149 11z m-57 -533 c-52 -176 -95 -337 -95 -358 0 -81
24 -106 236 -248 127 -85 194 -135 191 -144 -7 -17 -720 -865 -724 -861 -2 2
33 157 77 345 88 374 89 385 36 449 -14 15 -108 84 -210 152 -103 68 -185 127
-184 131 5 12 760 860 764 857 1 -2 -40 -147 -91 -323z"/>
</g>
</svg>
