<?xml version="1.0" standalone="no"?>
<!DOCTYPE svg PUBLIC "-//W3C//DTD SVG 20010904//EN"
 "http://www.w3.org/TR/2001/REC-SVG-20010904/DTD/svg10.dtd">
<svg version="1.0" xmlns="http://www.w3.org/2000/svg"
 width="512.000000pt" height="512.000000pt" viewBox="0 0 512.000000 512.000000"
 preserveAspectRatio="xMidYMid meet">

<g transform="translate(0.000000,512.000000) scale(0.100000,-0.100000)"
fill="#000000" stroke="none">
<path d="M369 4776 c-99 -27 -183 -97 -236 -198 l-28 -53 0 -1650 0 -1650 27
-57 c37 -79 98 -142 177 -181 l65 -32 249 -3 c225 -3 251 -2 268 14 23 20 25
53 5 80 -13 18 -32 19 -263 24 l-250 5 -49 30 c-61 38 -110 116 -119 189 -3
28 -5 758 -3 1621 l3 1570 30 54 c32 57 69 91 128 116 32 13 279 15 2187 15
1908 0 2155 -2 2187 -15 59 -25 96 -59 128 -116 l30 -54 0 -1615 0 -1615 -30
-54 c-32 -57 -69 -91 -128 -116 -32 -13 -245 -15 -1854 -15 -2001 0 -1863 4
-1863 -59 0 -61 -7 -61 469 -63 l432 -3 -51 -104 c-54 -110 -132 -236 -207
-333 l-44 -58 -155 0 c-150 0 -188 -6 -206 -34 -13 -19 -9 -45 12 -66 20 -20
33 -20 1280 -20 1247 0 1260 0 1280 20 21 21 25 47 12 66 -18 28 -56 34 -206
34 l-155 0 -44 58 c-72 93 -151 220 -206 329 -28 57 -51 105 -51 108 0 2 350
6 778 7 l777 3 66 32 c79 39 140 102 177 181 l27 57 0 1650 0 1650 -34 63
c-41 75 -103 135 -179 170 l-57 27 -2165 2 c-1694 1 -2175 -1 -2211 -11z
m2713 -3878 c42 -100 120 -243 188 -345 l69 -103 -779 0 -779 0 69 103 c70
104 149 250 188 345 l21 52 500 0 500 0 23 -52z"/>
<path d="M427 4462 c-16 -17 -17 -131 -17 -1439 0 -1363 1 -1421 18 -1436 17
-16 179 -17 2128 -17 1893 0 2112 2 2132 16 21 15 22 20 22 199 l0 185 -26 17
c-24 15 -29 15 -53 2 -26 -15 -26 -15 -29 -157 l-3 -142 -2039 0 -2040 0 0
1335 0 1335 2040 0 2040 0 2 -1112 3 -1112 26 -15 c24 -13 29 -13 53 2 l26 17
0 1154 c0 1104 -1 1154 -18 1169 -17 16 -180 17 -2134 17 -2036 0 -2116 -1
-2131 -18z"/>
<path d="M1255 4155 c-113 -23 -242 -93 -328 -178 -86 -84 -134 -160 -174
-272 -25 -72 -28 -93 -28 -215 0 -121 3 -143 27 -211 32 -89 82 -178 135 -236
69 -76 58 -82 307 166 l222 221 267 0 267 0 0 -24 c0 -13 -9 -53 -20 -88 -56
-183 -235 -341 -428 -378 -81 -16 -210 -8 -286 19 -78 28 -102 27 -123 -5 -26
-41 -3 -71 75 -101 276 -102 605 0 778 243 87 122 125 245 125 403 -1 115 -18
189 -71 297 -76 155 -224 282 -395 339 -99 34 -244 42 -350 20z m85 -373 l0
-267 -190 -190 c-214 -214 -192 -206 -249 -94 -46 86 -64 162 -63 264 0 161
61 296 181 408 70 64 136 102 226 128 105 31 95 56 95 -249z m250 235 c124
-45 247 -153 305 -266 27 -54 55 -145 55 -178 l0 -23 -250 0 -250 0 0 251 0
251 43 -7 c23 -4 67 -16 97 -28z"/>
<path d="M2907 3762 c-229 -229 -327 -334 -327 -349 0 -29 26 -53 58 -53 22 0
82 55 322 295 l295 295 295 -295 c255 -254 300 -295 325 -295 26 0 58 28 215
185 102 102 188 185 192 185 5 0 8 -24 8 -54 0 -60 16 -86 54 -86 48 0 56 25
56 178 0 179 7 172 -177 172 -123 0 -134 -2 -153 -22 -47 -50 -9 -98 77 -98
l58 0 -163 -162 -162 -163 -298 298 c-231 231 -303 297 -322 297 -20 0 -97
-72 -353 -328z"/>
<path d="M3059 3373 c-12 -13 -14 -140 -14 -733 0 -692 1 -719 19 -739 18 -20
29 -21 190 -21 139 0 176 3 194 16 l22 15 0 433 c0 407 -1 434 -18 449 -21 19
-45 21 -73 7 -18 -10 -19 -25 -19 -405 l0 -395 -100 0 -100 0 0 640 0 641 98
-3 97 -3 3 -160 c2 -130 5 -162 19 -177 20 -22 42 -23 71 -2 22 15 22 20 22
219 0 172 -2 206 -16 219 -24 24 -375 24 -395 -1z"/>
<path d="M2441 2904 c-21 -26 -21 -36 -21 -499 0 -463 0 -473 21 -499 l20 -26
173 0 c139 0 176 3 194 16 l22 15 0 490 c0 476 -1 490 -20 509 -18 18 -33 20
-194 20 l-175 0 -20 -26z m289 -499 l0 -405 -95 0 -95 0 0 405 0 405 95 0 95
0 0 -405z"/>
<path d="M742 2604 c-14 -10 -22 -26 -22 -44 0 -62 -20 -60 675 -60 695 0 675
-2 675 60 0 62 20 60 -675 60 -555 0 -633 -2 -653 -16z"/>
<path d="M3692 2604 c-22 -15 -22 -15 -22 -353 0 -315 1 -339 18 -354 27 -24
346 -25 380 -1 22 15 22 15 22 354 0 339 0 339 -22 354 -18 13 -54 16 -188 16
-134 0 -170 -3 -188 -16z m288 -354 l0 -250 -100 0 -100 0 0 250 0 250 100 0
100 0 0 -250z"/>
<path d="M742 2294 c-14 -10 -22 -26 -22 -44 0 -62 -20 -60 681 -60 603 0 637
1 652 18 24 26 21 68 -5 86 -20 14 -98 16 -653 16 -555 0 -633 -2 -653 -16z"/>
<path d="M742 1984 c-14 -10 -22 -26 -22 -44 0 -58 10 -60 371 -60 303 0 327
1 342 18 24 26 21 68 -5 86 -34 24 -652 24 -686 0z"/>
<path d="M2530 1387 c-40 -20 -56 -58 -41 -95 25 -61 113 -65 140 -6 16 36 14
50 -11 78 -29 31 -57 39 -88 23z"/>
</g>
</svg>
