<?xml version="1.0" standalone="no"?>
<!DOCTYPE svg PUBLIC "-//W3C//DTD SVG 20010904//EN"
 "http://www.w3.org/TR/2001/REC-SVG-20010904/DTD/svg10.dtd">
<svg version="1.0" xmlns="http://www.w3.org/2000/svg"
 width="512.000000pt" height="512.000000pt" viewBox="0 0 512.000000 512.000000"
 preserveAspectRatio="xMidYMid meet">

<g transform="translate(0.000000,512.000000) scale(0.100000,-0.100000)"
fill="#000000" stroke="none">
<path d="M1653 5035 c-424 -64 -830 -272 -1108 -567 -249 -264 -421 -599 -496
-964 -29 -144 -36 -422 -15 -574 100 -707 576 -1294 1236 -1525 534 -186 1146
-124 1610 164 l85 53 31 -36 c26 -30 33 -49 39 -104 11 -108 51 -152 138 -152
41 0 47 -3 66 -35 23 -40 175 -242 269 -360 265 -330 594 -655 815 -804 26
-18 78 -47 115 -64 61 -29 76 -32 163 -32 96 0 97 0 155 40 90 60 296 270 324
330 56 116 13 278 -124 466 -181 249 -639 666 -1046 953 -160 113 -182 133
-170 157 11 20 13 69 4 94 -16 41 -101 58 -144 28 -23 -16 -24 -16 -62 28 -21
24 -38 50 -38 57 0 6 27 65 59 130 155 307 215 544 215 862 1 207 -15 329 -65
508 -192 684 -739 1192 -1435 1333 -140 28 -477 36 -621 14z m580 -165 c356
-69 656 -235 918 -507 370 -383 543 -929 454 -1433 -49 -279 -168 -557 -342
-803 -77 -109 -246 -276 -363 -359 -114 -81 -321 -186 -448 -228 -357 -118
-745 -116 -1107 5 -118 39 -347 156 -455 233 -122 86 -316 280 -402 402 -128
180 -229 414 -280 650 -20 93 -23 132 -23 335 1 200 4 244 23 334 165 759 769
1307 1532 1390 132 15 368 6 493 -19z m1294 -2896 c21 -10 40 -20 42 -21 9 -5
-82 -144 -138 -210 -56 -66 -226 -223 -242 -223 -4 0 -12 20 -19 45 -7 25 -29
69 -50 97 l-36 51 86 77 c47 43 122 121 165 173 l78 96 39 -33 c21 -18 55 -41
75 -52z m292 -276 c226 -158 546 -426 748 -626 99 -98 185 -188 191 -199 10
-17 -15 -46 -221 -255 -128 -130 -242 -240 -253 -246 -19 -10 -37 4 -184 145
-170 164 -317 327 -480 528 -89 111 -267 344 -284 372 -4 8 7 25 31 45 76 63
209 206 253 271 25 36 47 67 49 67 2 0 69 -46 150 -102z m1086 -1035 c16 -40
30 -96 33 -136 l5 -67 -114 -115 c-132 -135 -175 -160 -253 -152 -30 3 -80 19
-115 36 l-62 32 138 133 c76 73 152 145 168 159 17 14 59 59 95 101 36 41 68
76 71 76 4 0 19 -30 34 -67z"/>
<path d="M1711 4739 c-356 -44 -687 -212 -946 -480 -214 -222 -351 -477 -417
-777 -18 -81 -22 -130 -22 -302 -1 -180 2 -218 22 -310 139 -620 544 -1054
1136 -1215 684 -186 1407 123 1761 755 258 462 269 1021 29 1490 -78 154 -162
268 -289 395 -133 133 -251 218 -410 295 -224 109 -387 149 -630 155 -88 2
-193 0 -234 -6z m442 -170 c549 -100 988 -537 1113 -1110 27 -119 27 -427 1
-549 -59 -274 -185 -514 -376 -712 -199 -208 -418 -335 -695 -404 -140 -35
-387 -44 -537 -20 -574 95 -1037 545 -1160 1129 -31 144 -31 380 -1 523 61
286 184 521 381 726 340 355 796 504 1274 417z"/>
<path d="M1847 4260 c-33 -39 -34 -61 -4 -95 17 -21 36 -28 92 -36 325 -45
600 -239 740 -524 60 -123 84 -216 94 -365 4 -69 13 -135 20 -148 24 -44 104
-40 128 8 24 47 11 227 -27 376 -58 226 -208 449 -399 595 -142 108 -369 197
-547 214 -70 7 -70 7 -97 -25z"/>
</g>
</svg>
